TITLE ""
FILE "P1Q_t_1301-1309.mp3" MP3
  TRACK 01 AUDIO
    TITLE "P1Q_t_1301-1309_01"
    INDEX 01 00:00:00
  TRACK 02 AUDIO
    TITLE "P1Q_t_1301-1309_02"
    INDEX 01 00:01:65
  TRACK 03 AUDIO
    TITLE "P1Q_t_1301-1309_03"
    INDEX 01 00:02:43
  TRACK 04 AUDIO
    TITLE "P1Q_t_1301-1309_04"
    INDEX 01 00:03:44
  TRACK 05 AUDIO
    TITLE "P1Q_t_1301-1309_05"
    INDEX 01 00:04:12
  TRACK 06 AUDIO
    TITLE "P1Q_t_1301-1309_06"
    INDEX 01 00:05:27
  TRACK 07 AUDIO
    TITLE "P1Q_t_1301-1309_07"
    INDEX 01 00:05:49
  TRACK 08 AUDIO
    TITLE "P1Q_t_1301-1309_08"
    INDEX 01 00:07:71
  TRACK 09 AUDIO
    TITLE "P1Q_t_1301-1309_09"
    INDEX 01 00:08:16
  TRACK 10 AUDIO
    TITLE "P1Q_t_1301-1309_10"
    INDEX 01 00:12:53
  TRACK 11 AUDIO
    TITLE "P1Q_t_1301-1309_11"
    INDEX 01 00:13:25
  TRACK 12 AUDIO
    TITLE "P1Q_t_1301-1309_12"
    INDEX 01 00:14:38
  TRACK 13 AUDIO
    TITLE "P1Q_t_1301-1309_13"
    INDEX 01 00:14:57
  TRACK 14 AUDIO
    TITLE "P1Q_t_1301-1309_14"
    INDEX 01 00:18:32
  TRACK 15 AUDIO
    TITLE "P1Q_t_1301-1309_15"
    INDEX 01 00:18:51
  TRACK 16 AUDIO
    TITLE "P1Q_t_1301-1309_16"
    INDEX 01 00:23:47
  TRACK 17 AUDIO
    TITLE "P1Q_t_1301-1309_17"
    INDEX 01 00:24:15
  TRACK 18 AUDIO
    TITLE "P1Q_t_1301-1309_18"
    INDEX 01 00:25:32
  TRACK 19 AUDIO
    TITLE "P1Q_t_1301-1309_19"
    INDEX 01 00:25:51
  TRACK 20 AUDIO
    TITLE "P1Q_t_1301-1309_20"
    INDEX 01 00:30:74
  TRACK 21 AUDIO
    TITLE "P1Q_t_1301-1309_21"
    INDEX 01 00:31:19
  TRACK 22 AUDIO
    TITLE "P1Q_t_1301-1309_22"
    INDEX 01 00:36:04
  TRACK 23 AUDIO
    TITLE "P1Q_t_1301-1309_23"
    INDEX 01 00:36:51
  TRACK 24 AUDIO
    TITLE "P1Q_t_1301-1309_24"
    INDEX 01 00:37:57
  TRACK 25 AUDIO
    TITLE "P1Q_t_1301-1309_25"
    INDEX 01 00:38:01
  TRACK 26 AUDIO
    TITLE "P1Q_t_1301-1309_26"
    INDEX 01 00:39:46
  TRACK 27 AUDIO
    TITLE "P1Q_t_1301-1309_27"
    INDEX 01 00:39:65
  TRACK 28 AUDIO
    TITLE "P1Q_t_1301-1309_28"
    INDEX 01 00:43:47
  TRACK 29 AUDIO
    TITLE "P1Q_t_1301-1309_29"
    INDEX 01 00:44:17
  TRACK 30 AUDIO
    TITLE "P1Q_t_1301-1309_30"
    INDEX 01 00:45:52
  TRACK 31 AUDIO
    TITLE "P1Q_t_1301-1309_31"
    INDEX 01 00:45:70
  TRACK 32 AUDIO
    TITLE "P1Q_t_1301-1309_32"
    INDEX 01 00:49:17
  TRACK 33 AUDIO
    TITLE "P1Q_t_1301-1309_33"
    INDEX 01 00:49:36
  TRACK 34 AUDIO
    TITLE "P1Q_t_1301-1309_34"
    INDEX 01 00:54:06
  TRACK 35 AUDIO
    TITLE "P1Q_t_1301-1309_35"
    INDEX 01 00:54:49
  TRACK 36 AUDIO
    TITLE "P1Q_t_1301-1309_36"
    INDEX 01 00:55:54
  TRACK 37 AUDIO
    TITLE "P1Q_t_1301-1309_37"
    INDEX 01 00:56:05
  TRACK 38 AUDIO
    TITLE "P1Q_t_1301-1309_38"
    INDEX 01 00:59:33
  TRACK 39 AUDIO
    TITLE "P1Q_t_1301-1309_39"
    INDEX 01 00:59:52
  TRACK 40 AUDIO
    TITLE "P1Q_t_1301-1309_40"
    INDEX 01 01:04:08
  TRACK 41 AUDIO
    TITLE "P1Q_t_1301-1309_41"
    INDEX 01 01:04:55
  TRACK 42 AUDIO
    TITLE "P1Q_t_1301-1309_42"
    INDEX 01 01:05:65
  TRACK 43 AUDIO
    TITLE "P1Q_t_1301-1309_43"
    INDEX 01 01:06:11
  TRACK 44 AUDIO
    TITLE "P1Q_t_1301-1309_44"
    INDEX 01 01:11:44
  TRACK 45 AUDIO
    TITLE "P1Q_t_1301-1309_45"
    INDEX 01 01:11:63
  TRACK 46 AUDIO
    TITLE "P1Q_t_1301-1309_46"
    INDEX 01 01:14:64
  TRACK 47 AUDIO
    TITLE "P1Q_t_1301-1309_47"
    INDEX 01 01:15:34
  TRACK 48 AUDIO
    TITLE "P1Q_t_1301-1309_48"
    INDEX 01 01:16:55
  TRACK 49 AUDIO
    TITLE "P1Q_t_1301-1309_49"
    INDEX 01 01:16:74
  TRACK 50 AUDIO
    TITLE "P1Q_t_1301-1309_50"
    INDEX 01 01:18:52
  TRACK 51 AUDIO
    TITLE "P1Q_t_1301-1309_51"
    INDEX 01 01:18:71
  TRACK 52 AUDIO
    TITLE "P1Q_t_1301-1309_52"
    INDEX 01 01:22:69
  TRACK 53 AUDIO
    TITLE "P1Q_t_1301-1309_53"
    INDEX 01 01:23:39
  TRACK 54 AUDIO
    TITLE "P1Q_t_1301-1309_54"
    INDEX 01 01:24:60
  TRACK 55 AUDIO
    TITLE "P1Q_t_1301-1309_55"
    INDEX 01 01:25:07
  TRACK 56 AUDIO
    TITLE "P1Q_t_1301-1309_56"
    INDEX 01 01:29:30
  TRACK 57 AUDIO
    TITLE "P1Q_t_1301-1309_57"
    INDEX 01 01:29:49
  TRACK 58 AUDIO
    TITLE "P1Q_t_1301-1309_58"
    INDEX 01 01:36:32
